<?xml version="1.0" encoding="UTF-8" standalone="no"?>
<svg
   xmlns:dc="http://purl.org/dc/elements/1.1/"
   xmlns:cc="http://creativecommons.org/ns#"
   xmlns:rdf="http://www.w3.org/1999/02/22-rdf-syntax-ns#"
   xmlns:svg="http://www.w3.org/2000/svg"
   xmlns="http://www.w3.org/2000/svg"
   width="100"
   height="100"
   viewBox="0 0 100 99.999987"
   version="1.1"
   id="svg23">
  <metadata
     id="metadata29">
    <rdf:RDF>
      <cc:Work
         rdf:about="">
        <dc:format>image/svg+xml</dc:format>
        <dc:type
           rdf:resource="http://purl.org/dc/dcmitype/StillImage" />
        <dc:title>Group</dc:title>
      </cc:Work>
    </rdf:RDF>
  </metadata>
  <defs
     id="defs27" />
  <!-- Generator: Sketch 55.2 (78181) - https://sketchapp.com -->
  <title
     id="title2">Group</title>
  <desc
     id="desc4">Created with Sketch.</desc>
  <g
     id="Assets"
     stroke="none"
     stroke-width="1"
     fill="none"
     fill-rule="evenodd"
     transform="translate(-0.2563,-2.9366065)">
    <g
       id="Artboard"
       transform="translate(-37,-83)">
      <g
         id="Group"
         transform="translate(43,89)">
        <g
           id="sw-wide"
           transform="translate(129,18.0003)"
           fill="#ffffff">
          <g
             id="assets/wordmark/primary">
            <g
               id="Group-16" />
          </g>
        </g>
        <g
           id="Group-2">
          <polygon
             id="stroke"
             fill="#ffffff"
             points="0.6638,93.2817 0.6638,25.7097 44.2558,0.5417 87.8488,25.7097 87.8488,93.2817 " />
          <polygon
             id="bg"
             stroke="#ffffff"
             stroke-width="12"
             points="0.6638,93.7707 0.6638,26.1987 44.2558,1.0307 87.8488,26.1987 87.8488,93.7707 " />
          <g
             id="assets/logo/primary">
            <path
               d="M 33.419342,57.521918 43.989952,51.419336 -6.2411348e-5,26.021662 V 51.102911 C 3.296505,49.32606 7.4499801,48.401123 12.205725,48.401123 c 10.354667,0 16.907858,4.397504 21.213617,9.120795"
               id="Fill-1"
               fill="#1cc29f" />
            <path
               d="m 14.010848,92.529566 c 4.406241,0 7.728397,-1.299404 7.728397,-4.622184 0,-3.394554 -4.261446,-4.694582 -9.533957,-5.99461 C 8.2802383,80.907325 3.7753872,79.898757 1.2482269e-4,77.99646 v 6.443971 C 3.1781106,89.568772 8.4506213,92.529566 14.010848,92.529566"
               id="Fill-4"
               fill="#1cc29f" />
            <polygon
               id="Fill-6"
               fill="#52595f"
               points="43.989889,51.419399 87.979904,76.816448 87.979904,26.021725 " />
            <polygon
               id="Fill-9"
               fill="#ace4d6"
               points="-0.0001248227,26.02185 43.989889,51.418899 87.979279,26.02185 43.989889,0.62417589 " />
            <path
               d="M 43.98964,51.418525 33.41903,57.52173 22.08825,64.064312 c -2.895263,-2.302355 -6.577532,-3.963121 -9.95461,-3.963121 -4.1172769,0 -6.2118017,1.371178 -6.2118017,3.900086 0,2.925219 2.865305,4.319489 6.8352907,5.449759 0.833192,0.237163 1.711943,0.463716 2.62627,0.689021 8.739461,2.094525 20.439716,4.766979 20.439716,16.755574 0,2.51705 -0.529872,5.025362 -1.690724,7.313986 H 87.97903 V 76.816199 Z"
               id="Fill-12"
               fill="#373b3f" />
            <path
               d="m 15.383399,70.140119 c -0.914327,-0.225305 -1.793078,-0.451858 -2.62627,-0.689021 -3.9699857,-1.13027 -6.8352907,-2.524539 -6.8352907,-5.449759 0,-2.528908 2.0945248,-3.900085 6.2118017,-3.900085 3.377078,0 7.059347,1.660766 9.95461,3.96312 l 11.33078,-6.542581 c -4.306383,-4.723291 -10.858951,-9.121419 -21.213617,-9.121419 -4.756369,0 -8.908596,0.924937 -12.20516335461,2.702412 V 76.816261 77.99646 C 3.7748879,79.898757 8.2803631,80.906701 12.205413,81.912148 c 5.271886,1.300652 9.533957,2.600056 9.533957,5.995234 0,3.32278 -3.32278,4.622184 -7.728397,4.622184 -5.560851,0 -10.8333617,-2.960794 -14.01072335461,-8.089135 v 9.769248 H 34.132391 c 1.160852,-2.288624 1.690724,-4.796936 1.690724,-7.313985 0,-11.988596 -11.700255,-14.661674 -20.439716,-16.755575"
               id="Fill-14"
               fill="#ffffff" />
          </g>
        </g>
      </g>
    </g>
  </g>
  <text
     xml:space="preserve"
     style="font-style:normal;font-weight:normal;font-size:20px;line-height:1.25;font-family:sans-serif;fill:#ffffff;fill-opacity:1;stroke:none"
     x="41.594482"
     y="96.789116"
     id="text33"><tspan
       id="tspan31"
       x="41.594482"
       y="96.789116">orted</tspan></text>
</svg>
